# xmcd
#
# Track frame offsets: 
#        150
#        3422
#        24842
#        48287
#        73267
#        92165
#        109410
#        133057
#        151025
#        173780
#        193282
#        210945
#        231357
#        251530
#
# Disc length: 3447 seconds
#
# Revision: 2
# Processed by: cddbd v1.5.2PL0 Copyright (c) Steve Scherf et al.
# Submitted via: ExactAudioCopyFreeDBPlugin 1.0
#
DISCID=b90d750e
DTITLE=Curtis Salgado - More Than You Can Chew
DYEAR=1995
DGENRE=Blues
TTITLE0=To Hell With It (Part 1)
TTITLE1=Little Charmer
TTITLE2=I Don't Care
TTITLE3=Salt in My Wounds
TTITLE4=Heartless
TTITLE5=She Told Me That Too
TTITLE6=More Than You Can Chew
TTITLE7=Can't This Be Mine
TTITLE8=I'm Not Through Lovin' You
TTITLE9=Got A Bad Feelin' (Gonna Be A Good Night)
TTITLE10=Jump Into Love
TTITLE11=Always
TTITLE12=On My Way Back Home
TTITLE13=To Hell With It (Part 2)
EXTD=
EXTT0=
EXTT1=
EXTT2=
EXTT3=
EXTT4=
EXTT5=(with Steve Miller)
EXTT6=
EXTT7=
EXTT8=
EXTT9=
EXTT10=
EXTT11=
EXTT12=
EXTT13=
PLAYORDER=
